<svg width="1440" height="800" viewBox="0 0 1440 800" fill="none" xmlns="http://www.w3.org/2000/svg">
<g clip-path="url(#clip0_133_47)">
<rect width="1440" height="800" fill="#CA5959"/>
<g filter="url(#filter0_bd_133_47)">
<rect x="99" y="59" width="1242" height="683" rx="21" fill="#FEF5EA" fill-opacity="0.83" shape-rendering="crispEdges"/>
</g>
<path d="M420 388V316H396V304H468V316H444V388H420ZM516 340H528V352H516V388H492V328H516V340ZM564 328V340H528V328H564ZM588 388V376H576V364H588V352H636V340H588V328H648V340H660V388H588ZM600 376H636V364H600V376ZM708 316V304H732V316H708ZM684 388V376H708V340H696V328H732V376H756V388H684ZM768 388V328H840V340H852V388H828V340H792V388H768ZM876 388V376H864V340H876V328H936V340H948V364H888V376H936V388H876ZM888 352H924V340H888V352ZM996 340H1008V352H996V388H972V328H996V340ZM1044 328V340H1008V328H1044ZM552 484V472H540V460H528V424H540V412H552V400H600V412H612V424H588V412H564V424H552V460H564V472H588V460H612V472H600V484H552ZM636 484V472H624V460H636V448H684V436H636V424H696V436H708V484H636ZM648 472H684V460H648V472ZM756 436H768V448H756V484H732V424H756V436ZM804 424V436H768V424H804ZM828 484V472H816V436H828V424H876V400H900V484H828ZM840 472H876V436H840V472Z" fill="#CA5959"/>
</g>
<defs>
<filter id="filter0_bd_133_47" x="74.5" y="34.5" width="1293.4" height="734.4" filterUnits="userSpaceOnUse" color-interpolation-filters="sRGB">
<feFlood flood-opacity="0" result="BackgroundImageFix"/>
<feGaussianBlur in="BackgroundImageFix" stdDeviation="12.25"/>
<feComposite in2="SourceAlpha" operator="in" result="effect1_backgroundBlur_133_47"/>
<feColorMatrix in="SourceAlpha" type="matrix" values="0 0 0 0 0 0 0 0 0 0 0 0 0 0 0 0 0 0 127 0" result="hardAlpha"/>
<feOffset dx="7" dy="7"/>
<feGaussianBlur stdDeviation="9.95"/>
<feComposite in2="hardAlpha" operator="out"/>
<feColorMatrix type="matrix" values="0 0 0 0 0 0 0 0 0 0 0 0 0 0 0 0 0 0 0.25 0"/>
<feBlend mode="normal" in2="effect1_backgroundBlur_133_47" result="effect2_dropShadow_133_47"/>
<feBlend mode="normal" in="SourceGraphic" in2="effect2_dropShadow_133_47" result="shape"/>
</filter>
<clipPath id="clip0_133_47">
<rect width="1440" height="800" fill="white"/>
</clipPath>
</defs>
</svg>
