<svg width="390" height="462" viewBox="0 0 390 462" fill="none" xmlns="http://www.w3.org/2000/svg">
<g clip-path="url(#clip0_133_2)">
<rect width="390" height="462" fill="#FEF5EA"/>
<g filter="url(#filter0_bi_133_2)">
<path d="M0 -86H390V594C390 616.091 372.091 634 350 634H40C17.9086 634 0 616.091 0 594V-86Z" fill="#CA5959" fill-opacity="0.83"/>
</g>
<g filter="url(#filter1_i_133_2)">
<rect x="64" y="193" width="263" height="29" rx="6" fill="#FFFBF5"/>
</g>
<path d="M90.39 214H87.517L82.4 204.48H82.332C82.3433 204.729 82.3547 204.996 82.366 205.279C82.3773 205.551 82.3887 205.834 82.4 206.129C82.4227 206.412 82.4397 206.701 82.451 206.996C82.4623 207.291 82.468 207.585 82.468 207.88V214H80.428V201.862H83.284L88.384 211.314H88.452C88.4407 211.087 88.4293 210.844 88.418 210.583C88.4067 210.311 88.3953 210.033 88.384 209.75C88.3727 209.467 88.3613 209.178 88.35 208.883C88.3387 208.588 88.333 208.305 88.333 208.033V201.862H90.39V214ZM100.962 209.376C100.962 210.147 100.866 210.827 100.673 211.416C100.481 212.005 100.197 212.51 99.8234 212.929C99.4607 213.337 99.0187 213.649 98.4974 213.864C97.9761 214.068 97.3924 214.17 96.7464 214.17C96.1457 214.17 95.5847 214.068 95.0634 213.864C94.5534 213.649 94.1114 213.337 93.7374 212.929C93.3747 212.51 93.0914 212.005 92.8874 211.416C92.6834 210.827 92.5814 210.147 92.5814 209.376C92.5814 208.356 92.7457 207.495 93.0744 206.792C93.4144 206.078 93.9017 205.54 94.5364 205.177C95.1711 204.803 95.9247 204.616 96.7974 204.616C97.6134 204.616 98.3331 204.803 98.9564 205.177C99.5797 205.54 100.067 206.078 100.418 206.792C100.781 207.495 100.962 208.356 100.962 209.376ZM94.8764 209.376C94.8764 210.022 94.9444 210.577 95.0804 211.042C95.2164 211.495 95.4204 211.841 95.6924 212.079C95.9757 212.317 96.3384 212.436 96.7804 212.436C97.2224 212.436 97.5794 212.317 97.8514 212.079C98.1347 211.841 98.3387 211.495 98.4634 211.042C98.5994 210.577 98.6674 210.022 98.6674 209.376C98.6674 208.719 98.5994 208.169 98.4634 207.727C98.3274 207.274 98.1177 206.934 97.8344 206.707C97.5624 206.469 97.2054 206.35 96.7634 206.35C96.0947 206.35 95.6131 206.611 95.3184 207.132C95.0237 207.653 94.8764 208.401 94.8764 209.376ZM113.05 204.616C114.047 204.616 114.795 204.882 115.294 205.415C115.793 205.948 116.042 206.809 116.042 207.999V214H113.815V208.407C113.815 207.727 113.702 207.217 113.475 206.877C113.248 206.526 112.897 206.35 112.421 206.35C111.764 206.35 111.299 206.594 111.027 207.081C110.755 207.568 110.619 208.277 110.619 209.206V214H108.375V208.407C108.375 207.954 108.324 207.574 108.222 207.268C108.12 206.962 107.967 206.735 107.763 206.588C107.559 206.429 107.298 206.35 106.981 206.35C106.528 206.35 106.171 206.475 105.91 206.724C105.649 206.962 105.462 207.313 105.349 207.778C105.247 208.243 105.196 208.815 105.196 209.495V214H102.935V204.786H104.669L104.992 205.993H105.094C105.264 205.676 105.474 205.415 105.723 205.211C105.984 205.007 106.278 204.86 106.607 204.769C106.947 204.667 107.298 204.616 107.661 204.616C108.307 204.616 108.845 204.735 109.276 204.973C109.718 205.2 110.058 205.557 110.296 206.044H110.415C110.698 205.545 111.072 205.183 111.537 204.956C112.013 204.729 112.517 204.616 113.05 204.616ZM122.078 204.616C122.872 204.616 123.552 204.786 124.118 205.126C124.696 205.455 125.144 205.931 125.461 206.554C125.779 207.166 125.937 207.914 125.937 208.798V209.886H120.293C120.316 210.725 120.52 211.376 120.905 211.841C121.302 212.294 121.857 212.521 122.571 212.521C123.138 212.521 123.642 212.464 124.084 212.351C124.526 212.226 124.985 212.051 125.461 211.824V213.541C125.031 213.756 124.583 213.915 124.118 214.017C123.654 214.119 123.081 214.17 122.401 214.17C121.54 214.17 120.775 214 120.106 213.66C119.449 213.309 118.933 212.782 118.559 212.079C118.185 211.376 117.998 210.504 117.998 209.461C117.998 208.407 118.168 207.523 118.508 206.809C118.848 206.084 119.324 205.54 119.936 205.177C120.56 204.803 121.274 204.616 122.078 204.616ZM122.112 206.197C121.602 206.197 121.189 206.384 120.871 206.758C120.565 207.121 120.384 207.665 120.327 208.39H123.795C123.795 207.959 123.733 207.58 123.608 207.251C123.484 206.922 123.297 206.667 123.047 206.486C122.809 206.293 122.498 206.197 122.112 206.197ZM134.877 214.17C133.891 214.17 133.092 213.773 132.48 212.98C131.868 212.175 131.562 210.985 131.562 209.41C131.562 207.835 131.874 206.645 132.497 205.84C133.12 205.024 133.936 204.616 134.945 204.616C135.364 204.616 135.727 204.678 136.033 204.803C136.35 204.916 136.622 205.075 136.849 205.279C137.076 205.483 137.274 205.71 137.444 205.959H137.512C137.489 205.8 137.461 205.557 137.427 205.228C137.393 204.899 137.376 204.593 137.376 204.31V201.08H139.637V214H137.903L137.478 212.793H137.376C137.229 213.042 137.042 213.275 136.815 213.49C136.588 213.694 136.316 213.858 135.999 213.983C135.682 214.108 135.308 214.17 134.877 214.17ZM135.625 212.436C136.316 212.436 136.804 212.209 137.087 211.756C137.37 211.303 137.512 210.617 137.512 209.699V209.427C137.512 208.43 137.376 207.67 137.104 207.149C136.832 206.628 136.333 206.367 135.608 206.367C135.041 206.367 134.605 206.639 134.299 207.183C134.004 207.716 133.857 208.469 133.857 209.444C133.857 210.419 134.01 211.161 134.316 211.671C134.622 212.181 135.058 212.436 135.625 212.436ZM145.702 204.616C146.496 204.616 147.176 204.786 147.742 205.126C148.32 205.455 148.768 205.931 149.085 206.554C149.403 207.166 149.561 207.914 149.561 208.798V209.886H143.917C143.94 210.725 144.144 211.376 144.529 211.841C144.926 212.294 145.481 212.521 146.195 212.521C146.762 212.521 147.266 212.464 147.708 212.351C148.15 212.226 148.609 212.051 149.085 211.824V213.541C148.655 213.756 148.207 213.915 147.742 214.017C147.278 214.119 146.705 214.17 146.025 214.17C145.164 214.17 144.399 214 143.73 213.66C143.073 213.309 142.557 212.782 142.183 212.079C141.809 211.376 141.622 210.504 141.622 209.461C141.622 208.407 141.792 207.523 142.132 206.809C142.472 206.084 142.948 205.54 143.56 205.177C144.184 204.803 144.898 204.616 145.702 204.616ZM145.736 206.197C145.226 206.197 144.813 206.384 144.495 206.758C144.189 207.121 144.008 207.665 143.951 208.39H147.419C147.419 207.959 147.357 207.58 147.232 207.251C147.108 206.922 146.921 206.667 146.671 206.486C146.433 206.293 146.122 206.197 145.736 206.197ZM163.533 204.786V214H161.799L161.51 212.81H161.391C161.21 213.127 160.977 213.388 160.694 213.592C160.411 213.785 160.099 213.926 159.759 214.017C159.419 214.119 159.068 214.17 158.705 214.17C158.07 214.17 157.521 214.051 157.056 213.813C156.591 213.575 156.229 213.212 155.968 212.725C155.719 212.226 155.594 211.586 155.594 210.804V204.786H157.855V210.379C157.855 211.059 157.968 211.575 158.195 211.926C158.433 212.266 158.807 212.436 159.317 212.436C159.827 212.436 160.224 212.317 160.507 212.079C160.802 211.83 161.006 211.473 161.119 211.008C161.232 210.543 161.289 209.971 161.289 209.291V204.786H163.533ZM172.073 211.331C172.073 211.943 171.937 212.464 171.665 212.895C171.393 213.314 170.991 213.632 170.458 213.847C169.926 214.062 169.257 214.17 168.452 214.17C167.84 214.17 167.308 214.125 166.854 214.034C166.401 213.943 165.965 213.802 165.545 213.609V211.79C165.999 212.005 166.486 212.187 167.007 212.334C167.54 212.481 168.022 212.555 168.452 212.555C168.962 212.555 169.331 212.464 169.557 212.283C169.784 212.102 169.897 211.858 169.897 211.552C169.897 211.371 169.846 211.206 169.744 211.059C169.654 210.912 169.461 210.759 169.166 210.6C168.883 210.43 168.469 210.22 167.925 209.971C167.393 209.733 166.951 209.495 166.599 209.257C166.248 209.019 165.982 208.736 165.8 208.407C165.619 208.067 165.528 207.642 165.528 207.132C165.528 206.305 165.84 205.681 166.463 205.262C167.098 204.831 167.925 204.616 168.945 204.616C169.501 204.616 170.016 204.673 170.492 204.786C170.98 204.888 171.467 205.058 171.954 205.296L171.291 206.877C171.019 206.752 170.742 206.645 170.458 206.554C170.186 206.452 169.92 206.373 169.659 206.316C169.41 206.259 169.161 206.231 168.911 206.231C168.515 206.231 168.214 206.305 168.01 206.452C167.806 206.588 167.704 206.786 167.704 207.047C167.704 207.228 167.755 207.393 167.857 207.54C167.959 207.676 168.152 207.818 168.435 207.965C168.719 208.112 169.121 208.299 169.642 208.526C170.164 208.73 170.606 208.951 170.968 209.189C171.331 209.416 171.603 209.699 171.784 210.039C171.977 210.379 172.073 210.81 172.073 211.331ZM181.844 204.786V214H180.11L179.821 212.81H179.702C179.521 213.127 179.289 213.388 179.005 213.592C178.722 213.785 178.41 213.926 178.07 214.017C177.73 214.119 177.379 214.17 177.016 214.17C176.382 214.17 175.832 214.051 175.367 213.813C174.903 213.575 174.54 213.212 174.279 212.725C174.03 212.226 173.905 211.586 173.905 210.804V204.786H176.166V210.379C176.166 211.059 176.28 211.575 176.506 211.926C176.744 212.266 177.118 212.436 177.628 212.436C178.138 212.436 178.535 212.317 178.818 212.079C179.113 211.83 179.317 211.473 179.43 211.008C179.544 210.543 179.6 209.971 179.6 209.291V204.786H181.844ZM188.005 204.616C189.115 204.616 189.965 204.877 190.555 205.398C191.144 205.908 191.439 206.713 191.439 207.812V214H189.858L189.416 212.725H189.348C189.098 213.054 188.843 213.331 188.583 213.558C188.322 213.773 188.022 213.926 187.682 214.017C187.342 214.119 186.934 214.17 186.458 214.17C185.948 214.17 185.489 214.068 185.081 213.864C184.673 213.66 184.35 213.348 184.112 212.929C183.874 212.498 183.755 211.96 183.755 211.314C183.755 210.362 184.083 209.648 184.741 209.172C185.398 208.685 186.384 208.418 187.699 208.373L189.178 208.322V207.863C189.178 207.274 189.053 206.854 188.804 206.605C188.554 206.356 188.214 206.231 187.784 206.231C187.376 206.231 186.962 206.299 186.543 206.435C186.135 206.571 185.732 206.73 185.336 206.911L184.639 205.415C185.103 205.177 185.619 204.984 186.186 204.837C186.752 204.69 187.359 204.616 188.005 204.616ZM188.226 209.682C187.421 209.716 186.86 209.88 186.543 210.175C186.225 210.458 186.067 210.844 186.067 211.331C186.067 211.762 186.174 212.073 186.39 212.266C186.616 212.459 186.911 212.555 187.274 212.555C187.806 212.555 188.26 212.379 188.634 212.028C189.008 211.665 189.195 211.133 189.195 210.43V209.648L188.226 209.682ZM198.537 204.616C198.696 204.616 198.86 204.622 199.03 204.633C199.2 204.644 199.342 204.667 199.455 204.701L199.251 206.69C199.138 206.667 199.002 206.65 198.843 206.639C198.696 206.616 198.537 206.605 198.367 206.605C198.084 206.605 197.806 206.662 197.534 206.775C197.262 206.877 197.019 207.036 196.803 207.251C196.588 207.455 196.412 207.721 196.276 208.05C196.152 208.379 196.089 208.77 196.089 209.223V214H193.828V204.786H195.562L195.868 206.384H195.987C196.157 206.055 196.367 205.761 196.616 205.5C196.877 205.228 197.166 205.013 197.483 204.854C197.812 204.695 198.163 204.616 198.537 204.616ZM203.195 204.786V214H200.951V204.786H203.195ZM202.09 201.233C202.419 201.233 202.702 201.318 202.94 201.488C203.178 201.647 203.297 201.936 203.297 202.355C203.297 202.763 203.178 203.058 202.94 203.239C202.702 203.409 202.419 203.494 202.09 203.494C201.739 203.494 201.444 203.409 201.206 203.239C200.968 203.058 200.849 202.763 200.849 202.355C200.849 201.936 200.968 201.647 201.206 201.488C201.444 201.318 201.739 201.233 202.09 201.233ZM213.571 209.376C213.571 210.147 213.474 210.827 213.282 211.416C213.089 212.005 212.806 212.51 212.432 212.929C212.069 213.337 211.627 213.649 211.106 213.864C210.584 214.068 210.001 214.17 209.355 214.17C208.754 214.17 208.193 214.068 207.672 213.864C207.162 213.649 206.72 213.337 206.346 212.929C205.983 212.51 205.7 212.005 205.496 211.416C205.292 210.827 205.19 210.147 205.19 209.376C205.19 208.356 205.354 207.495 205.683 206.792C206.023 206.078 206.51 205.54 207.145 205.177C207.779 204.803 208.533 204.616 209.406 204.616C210.222 204.616 210.941 204.803 211.565 205.177C212.188 205.54 212.675 206.078 213.027 206.792C213.389 207.495 213.571 208.356 213.571 209.376ZM207.485 209.376C207.485 210.022 207.553 210.577 207.689 211.042C207.825 211.495 208.029 211.841 208.301 212.079C208.584 212.317 208.947 212.436 209.389 212.436C209.831 212.436 210.188 212.317 210.46 212.079C210.743 211.841 210.947 211.495 211.072 211.042C211.208 210.577 211.276 210.022 211.276 209.376C211.276 208.719 211.208 208.169 211.072 207.727C210.936 207.274 210.726 206.934 210.443 206.707C210.171 206.469 209.814 206.35 209.372 206.35C208.703 206.35 208.221 206.611 207.927 207.132C207.632 207.653 207.485 208.401 207.485 209.376Z" fill="#CA5959" fill-opacity="0.7"/>
<g filter="url(#filter2_i_133_2)">
<rect x="64" y="241" width="263" height="29" rx="6" fill="#FFFBF5"/>
</g>
<path d="M87.279 258.685C87.279 259.399 87.1147 260.017 86.786 260.538C86.4687 261.059 85.9927 261.462 85.358 261.745C84.7347 262.028 83.964 262.17 83.046 262.17C82.5927 262.17 82.1733 262.142 81.788 262.085C81.4027 262.04 81.04 261.966 80.7 261.864C80.3713 261.762 80.054 261.637 79.748 261.49V259.45C80.258 259.677 80.8077 259.886 81.397 260.079C81.9977 260.26 82.5813 260.351 83.148 260.351C83.5787 260.351 83.93 260.289 84.202 260.164C84.474 260.028 84.6723 259.847 84.797 259.62C84.933 259.382 85.001 259.11 85.001 258.804C85.001 258.464 84.916 258.175 84.746 257.937C84.5873 257.699 84.338 257.478 83.998 257.274C83.658 257.07 83.216 256.86 82.672 256.645C82.2867 256.475 81.9183 256.294 81.567 256.101C81.227 255.897 80.9267 255.653 80.666 255.37C80.4167 255.087 80.2183 254.752 80.071 254.367C79.935 253.982 79.867 253.528 79.867 253.007C79.867 252.316 80.0313 251.721 80.36 251.222C80.6887 250.723 81.1477 250.344 81.737 250.083C82.3263 249.822 83.012 249.692 83.794 249.692C84.4513 249.692 85.052 249.76 85.596 249.896C86.1513 250.032 86.6727 250.225 87.16 250.474L86.446 252.225C85.9813 252.01 85.5223 251.84 85.069 251.715C84.627 251.59 84.1793 251.528 83.726 251.528C83.3747 251.528 83.08 251.59 82.842 251.715C82.604 251.828 82.4227 251.993 82.298 252.208C82.1847 252.423 82.128 252.673 82.128 252.956C82.128 253.285 82.2073 253.562 82.366 253.789C82.5247 254.016 82.774 254.231 83.114 254.435C83.454 254.628 83.896 254.854 84.44 255.115C85.0407 255.387 85.5507 255.676 85.97 255.982C86.4007 256.288 86.7237 256.656 86.939 257.087C87.1657 257.518 87.279 258.05 87.279 258.685ZM92.76 252.616C93.5534 252.616 94.2334 252.786 94.8 253.126C95.378 253.455 95.8257 253.931 96.143 254.554C96.4604 255.166 96.619 255.914 96.619 256.798V257.886H90.975C90.9977 258.725 91.2017 259.376 91.587 259.841C91.9837 260.294 92.539 260.521 93.253 260.521C93.8197 260.521 94.324 260.464 94.766 260.351C95.208 260.226 95.667 260.051 96.143 259.824V261.541C95.7124 261.756 95.2647 261.915 94.8 262.017C94.3354 262.119 93.763 262.17 93.083 262.17C92.2217 262.17 91.4567 262 90.788 261.66C90.1307 261.309 89.615 260.782 89.241 260.079C88.867 259.376 88.68 258.504 88.68 257.461C88.68 256.407 88.85 255.523 89.19 254.809C89.53 254.084 90.006 253.54 90.618 253.177C91.2414 252.803 91.9554 252.616 92.76 252.616ZM92.794 254.197C92.284 254.197 91.8704 254.384 91.553 254.758C91.247 255.121 91.0657 255.665 91.009 256.39H94.477C94.477 255.959 94.4147 255.58 94.29 255.251C94.1654 254.922 93.9784 254.667 93.729 254.486C93.491 254.293 93.1794 254.197 92.794 254.197ZM103.397 252.616C104.36 252.616 105.12 252.882 105.675 253.415C106.23 253.948 106.508 254.809 106.508 255.999V262H104.247V256.424C104.247 255.733 104.128 255.217 103.89 254.877C103.652 254.526 103.278 254.35 102.768 254.35C102.009 254.35 101.493 254.622 101.221 255.166C100.949 255.699 100.813 256.475 100.813 257.495V262H98.5521V252.786H100.286L100.609 253.993H100.694C100.898 253.676 101.136 253.415 101.408 253.211C101.68 253.007 101.986 252.86 102.326 252.769C102.666 252.667 103.023 252.616 103.397 252.616ZM111.173 252.157C111.173 252.52 111.156 252.877 111.122 253.228C111.099 253.568 111.076 253.823 111.054 253.993H111.19C111.371 253.676 111.586 253.421 111.836 253.228C112.096 253.024 112.385 252.871 112.703 252.769C113.031 252.667 113.371 252.616 113.723 252.616C114.369 252.616 114.924 252.735 115.389 252.973C115.853 253.211 116.216 253.579 116.477 254.078C116.737 254.565 116.868 255.206 116.868 255.999V262H114.607V256.424C114.607 255.721 114.488 255.2 114.25 254.86C114.012 254.52 113.638 254.35 113.128 254.35C112.64 254.35 112.249 254.475 111.955 254.724C111.66 254.962 111.456 255.319 111.343 255.795C111.229 256.26 111.173 256.832 111.173 257.512V262H108.912V249.08H111.173V252.157ZM122.96 252.616C124.071 252.616 124.921 252.877 125.51 253.398C126.099 253.908 126.394 254.713 126.394 255.812V262H124.813L124.371 260.725H124.303C124.054 261.054 123.799 261.331 123.538 261.558C123.277 261.773 122.977 261.926 122.637 262.017C122.297 262.119 121.889 262.17 121.413 262.17C120.903 262.17 120.444 262.068 120.036 261.864C119.628 261.66 119.305 261.348 119.067 260.929C118.829 260.498 118.71 259.96 118.71 259.314C118.71 258.362 119.039 257.648 119.696 257.172C120.353 256.685 121.339 256.418 122.654 256.373L124.133 256.322V255.863C124.133 255.274 124.008 254.854 123.759 254.605C123.51 254.356 123.17 254.231 122.739 254.231C122.331 254.231 121.917 254.299 121.498 254.435C121.09 254.571 120.688 254.73 120.291 254.911L119.594 253.415C120.059 253.177 120.574 252.984 121.141 252.837C121.708 252.69 122.314 252.616 122.96 252.616ZM123.181 257.682C122.376 257.716 121.815 257.88 121.498 258.175C121.181 258.458 121.022 258.844 121.022 259.331C121.022 259.762 121.13 260.073 121.345 260.266C121.572 260.459 121.866 260.555 122.229 260.555C122.762 260.555 123.215 260.379 123.589 260.028C123.963 259.665 124.15 259.133 124.15 258.43V257.648L123.181 257.682Z" fill="#CA5959" fill-opacity="0.7"/>
<path d="M120 92V74H114V71H132V74H126V92H120ZM144 80H147V83H144V92H138V77H144V80ZM156 77V80H147V77H156ZM162 92V89H159V86H162V83H174V80H162V77H177V80H180V92H162ZM165 89H174V86H165V89ZM192 74V71H198V74H192ZM186 92V89H192V80H189V77H198V89H204V92H186ZM207 92V77H225V80H228V92H222V80H213V92H207ZM234 92V89H231V80H234V77H249V80H252V86H237V89H249V92H234ZM237 83H246V80H237V83ZM264 80H267V83H264V92H258V77H264V80ZM276 77V80H267V77H276ZM153 116V113H150V110H147V101H150V98H153V95H165V98H168V101H162V98H156V101H153V110H156V113H162V110H168V113H165V116H153ZM174 116V113H171V110H174V107H186V104H174V101H189V104H192V116H174ZM177 113H186V110H177V113ZM204 104H207V107H204V116H198V101H204V104ZM216 101V104H207V101H216ZM222 116V113H219V104H222V101H234V95H240V116H222ZM225 113H234V104H225V113Z" fill="#FEF5EA"/>
<line x1="64" y1="342.5" x2="327" y2="342.5" stroke="white"/>
<g filter="url(#filter3_d_133_2)">
<rect x="64" y="296" width="263" height="29" rx="5" fill="#CA5959"/>
</g>
<path d="M178.82 317H172.275V304.862H178.82V306.681H174.553V309.775H178.548V311.594H174.553V315.164H178.82V317ZM185.798 307.616C186.761 307.616 187.52 307.882 188.076 308.415C188.631 308.948 188.909 309.809 188.909 310.999V317H186.648V311.424C186.648 310.733 186.529 310.217 186.291 309.877C186.053 309.526 185.679 309.35 185.169 309.35C184.409 309.35 183.894 309.622 183.622 310.166C183.35 310.699 183.214 311.475 183.214 312.495V317H180.953V307.786H182.687L183.01 308.993H183.095C183.299 308.676 183.537 308.415 183.809 308.211C184.081 308.007 184.387 307.86 184.727 307.769C185.067 307.667 185.424 307.616 185.798 307.616ZM194.916 315.453C195.165 315.453 195.403 315.43 195.63 315.385C195.868 315.328 196.089 315.266 196.293 315.198V316.796C196.055 316.898 195.766 316.983 195.426 317.051C195.086 317.13 194.706 317.17 194.287 317.17C193.766 317.17 193.301 317.085 192.893 316.915C192.485 316.734 192.162 316.428 191.924 315.997C191.697 315.566 191.584 314.966 191.584 314.195V309.401H190.428V308.466L191.72 307.718L192.4 305.763H193.828V307.786H196.208V309.401H193.828V314.178C193.828 314.609 193.924 314.932 194.117 315.147C194.321 315.351 194.587 315.453 194.916 315.453ZM202.678 307.616C202.837 307.616 203.001 307.622 203.171 307.633C203.341 307.644 203.483 307.667 203.596 307.701L203.392 309.69C203.279 309.667 203.143 309.65 202.984 309.639C202.837 309.616 202.678 309.605 202.508 309.605C202.225 309.605 201.947 309.662 201.675 309.775C201.403 309.877 201.159 310.036 200.944 310.251C200.729 310.455 200.553 310.721 200.417 311.05C200.292 311.379 200.23 311.77 200.23 312.223V317H197.969V307.786H199.703L200.009 309.384H200.128C200.298 309.055 200.508 308.761 200.757 308.5C201.018 308.228 201.307 308.013 201.624 307.854C201.953 307.695 202.304 307.616 202.678 307.616ZM208.448 307.616C209.559 307.616 210.409 307.877 210.998 308.398C211.587 308.908 211.882 309.713 211.882 310.812V317H210.301L209.859 315.725H209.791C209.542 316.054 209.287 316.331 209.026 316.558C208.765 316.773 208.465 316.926 208.125 317.017C207.785 317.119 207.377 317.17 206.901 317.17C206.391 317.17 205.932 317.068 205.524 316.864C205.116 316.66 204.793 316.348 204.555 315.929C204.317 315.498 204.198 314.96 204.198 314.314C204.198 313.362 204.527 312.648 205.184 312.172C205.841 311.685 206.827 311.418 208.142 311.373L209.621 311.322V310.863C209.621 310.274 209.496 309.854 209.247 309.605C208.998 309.356 208.658 309.231 208.227 309.231C207.819 309.231 207.405 309.299 206.986 309.435C206.578 309.571 206.176 309.73 205.779 309.911L205.082 308.415C205.547 308.177 206.062 307.984 206.629 307.837C207.196 307.69 207.802 307.616 208.448 307.616ZM208.669 312.682C207.864 312.716 207.303 312.88 206.986 313.175C206.669 313.458 206.51 313.844 206.51 314.331C206.51 314.762 206.618 315.073 206.833 315.266C207.06 315.459 207.354 315.555 207.717 315.555C208.25 315.555 208.703 315.379 209.077 315.028C209.451 314.665 209.638 314.133 209.638 313.43V312.648L208.669 312.682ZM218.981 307.616C219.14 307.616 219.304 307.622 219.474 307.633C219.644 307.644 219.786 307.667 219.899 307.701L219.695 309.69C219.582 309.667 219.446 309.65 219.287 309.639C219.14 309.616 218.981 309.605 218.811 309.605C218.528 309.605 218.25 309.662 217.978 309.775C217.706 309.877 217.462 310.036 217.247 310.251C217.032 310.455 216.856 310.721 216.72 311.05C216.595 311.379 216.533 311.77 216.533 312.223V317H214.272V307.786H216.006L216.312 309.384H216.431C216.601 309.055 216.811 308.761 217.06 308.5C217.321 308.228 217.61 308.013 217.927 307.854C218.256 307.695 218.607 307.616 218.981 307.616Z" fill="white"/>
<g filter="url(#filter4_d_133_2)">
<rect x="64" y="361" width="263" height="29" rx="5" fill="#CA5959"/>
</g>
<path d="M155.548 371.528C155.072 371.528 154.641 371.63 154.256 371.834C153.87 372.038 153.542 372.333 153.27 372.718C153.009 373.103 152.811 373.568 152.675 374.112C152.539 374.656 152.471 375.268 152.471 375.948C152.471 376.866 152.584 377.654 152.811 378.311C153.037 378.957 153.383 379.456 153.848 379.807C154.312 380.158 154.896 380.334 155.599 380.334C156.086 380.334 156.562 380.283 157.027 380.181C157.491 380.068 157.962 379.92 158.438 379.739V381.592C157.973 381.796 157.491 381.943 156.993 382.034C156.505 382.125 155.956 382.17 155.344 382.17C154.154 382.17 153.173 381.915 152.403 381.405C151.632 380.884 151.054 380.158 150.669 379.229C150.295 378.288 150.108 377.189 150.108 375.931C150.108 375.013 150.227 374.174 150.465 373.415C150.703 372.656 151.054 371.998 151.519 371.443C151.983 370.888 152.556 370.457 153.236 370.151C153.916 369.845 154.692 369.692 155.565 369.692C156.143 369.692 156.726 369.766 157.316 369.913C157.916 370.049 158.443 370.242 158.897 370.491L158.132 372.276C157.735 372.083 157.321 371.913 156.891 371.766C156.471 371.607 156.024 371.528 155.548 371.528ZM164.313 372.616C165.424 372.616 166.274 372.877 166.863 373.398C167.452 373.908 167.747 374.713 167.747 375.812V382H166.166L165.724 380.725H165.656C165.407 381.054 165.152 381.331 164.891 381.558C164.63 381.773 164.33 381.926 163.99 382.017C163.65 382.119 163.242 382.17 162.766 382.17C162.256 382.17 161.797 382.068 161.389 381.864C160.981 381.66 160.658 381.348 160.42 380.929C160.182 380.498 160.063 379.96 160.063 379.314C160.063 378.362 160.392 377.648 161.049 377.172C161.706 376.685 162.692 376.418 164.007 376.373L165.486 376.322V375.863C165.486 375.274 165.361 374.854 165.112 374.605C164.863 374.356 164.523 374.231 164.092 374.231C163.684 374.231 163.27 374.299 162.851 374.435C162.443 374.571 162.041 374.73 161.644 374.911L160.947 373.415C161.412 373.177 161.927 372.984 162.494 372.837C163.061 372.69 163.667 372.616 164.313 372.616ZM164.534 377.682C163.729 377.716 163.168 377.88 162.851 378.175C162.534 378.458 162.375 378.844 162.375 379.331C162.375 379.762 162.483 380.073 162.698 380.266C162.925 380.459 163.219 380.555 163.582 380.555C164.115 380.555 164.568 380.379 164.942 380.028C165.316 379.665 165.503 379.133 165.503 378.43V377.648L164.534 377.682ZM172.993 382.17C172.007 382.17 171.208 381.773 170.596 380.98C169.984 380.175 169.678 378.985 169.678 377.41C169.678 375.835 169.989 374.645 170.613 373.84C171.236 373.024 172.052 372.616 173.061 372.616C173.48 372.616 173.843 372.678 174.149 372.803C174.466 372.916 174.738 373.075 174.965 373.279C175.191 373.483 175.39 373.71 175.56 373.959H175.628C175.605 373.8 175.577 373.557 175.543 373.228C175.509 372.899 175.492 372.593 175.492 372.31V369.08H177.753V382H176.019L175.594 380.793H175.492C175.344 381.042 175.157 381.275 174.931 381.49C174.704 381.694 174.432 381.858 174.115 381.983C173.797 382.108 173.423 382.17 172.993 382.17ZM173.741 380.436C174.432 380.436 174.919 380.209 175.203 379.756C175.486 379.303 175.628 378.617 175.628 377.699V377.427C175.628 376.43 175.492 375.67 175.22 375.149C174.948 374.628 174.449 374.367 173.724 374.367C173.157 374.367 172.721 374.639 172.415 375.183C172.12 375.716 171.973 376.469 171.973 377.444C171.973 378.419 172.126 379.161 172.432 379.671C172.738 380.181 173.174 380.436 173.741 380.436ZM183.886 372.616C184.997 372.616 185.847 372.877 186.436 373.398C187.025 373.908 187.32 374.713 187.32 375.812V382H185.739L185.297 380.725H185.229C184.98 381.054 184.725 381.331 184.464 381.558C184.203 381.773 183.903 381.926 183.563 382.017C183.223 382.119 182.815 382.17 182.339 382.17C181.829 382.17 181.37 382.068 180.962 381.864C180.554 381.66 180.231 381.348 179.993 380.929C179.755 380.498 179.636 379.96 179.636 379.314C179.636 378.362 179.965 377.648 180.622 377.172C181.279 376.685 182.265 376.418 183.58 376.373L185.059 376.322V375.863C185.059 375.274 184.934 374.854 184.685 374.605C184.436 374.356 184.096 374.231 183.665 374.231C183.257 374.231 182.843 374.299 182.424 374.435C182.016 374.571 181.614 374.73 181.217 374.911L180.52 373.415C180.985 373.177 181.5 372.984 182.067 372.837C182.634 372.69 183.24 372.616 183.886 372.616ZM184.107 377.682C183.302 377.716 182.741 377.88 182.424 378.175C182.107 378.458 181.948 378.844 181.948 379.331C181.948 379.762 182.056 380.073 182.271 380.266C182.498 380.459 182.792 380.555 183.155 380.555C183.688 380.555 184.141 380.379 184.515 380.028C184.889 379.665 185.076 379.133 185.076 378.43V377.648L184.107 377.682ZM195.779 379.331C195.779 379.943 195.643 380.464 195.371 380.895C195.099 381.314 194.697 381.632 194.164 381.847C193.631 382.062 192.963 382.17 192.158 382.17C191.546 382.17 191.013 382.125 190.56 382.034C190.107 381.943 189.67 381.802 189.251 381.609V379.79C189.704 380.005 190.192 380.187 190.713 380.334C191.246 380.481 191.727 380.555 192.158 380.555C192.668 380.555 193.036 380.464 193.263 380.283C193.49 380.102 193.603 379.858 193.603 379.552C193.603 379.371 193.552 379.206 193.45 379.059C193.359 378.912 193.167 378.759 192.872 378.6C192.589 378.43 192.175 378.22 191.631 377.971C191.098 377.733 190.656 377.495 190.305 377.257C189.954 377.019 189.687 376.736 189.506 376.407C189.325 376.067 189.234 375.642 189.234 375.132C189.234 374.305 189.546 373.681 190.169 373.262C190.804 372.831 191.631 372.616 192.651 372.616C193.206 372.616 193.722 372.673 194.198 372.786C194.685 372.888 195.173 373.058 195.66 373.296L194.997 374.877C194.725 374.752 194.447 374.645 194.164 374.554C193.892 374.452 193.626 374.373 193.365 374.316C193.116 374.259 192.866 374.231 192.617 374.231C192.22 374.231 191.92 374.305 191.716 374.452C191.512 374.588 191.41 374.786 191.41 375.047C191.41 375.228 191.461 375.393 191.563 375.54C191.665 375.676 191.858 375.818 192.141 375.965C192.424 376.112 192.827 376.299 193.348 376.526C193.869 376.73 194.311 376.951 194.674 377.189C195.037 377.416 195.309 377.699 195.49 378.039C195.683 378.379 195.779 378.81 195.779 379.331ZM201.266 380.453C201.515 380.453 201.753 380.43 201.98 380.385C202.218 380.328 202.439 380.266 202.643 380.198V381.796C202.405 381.898 202.116 381.983 201.776 382.051C201.436 382.13 201.056 382.17 200.637 382.17C200.116 382.17 199.651 382.085 199.243 381.915C198.835 381.734 198.512 381.428 198.274 380.997C198.047 380.566 197.934 379.966 197.934 379.195V374.401H196.778V373.466L198.07 372.718L198.75 370.763H200.178V372.786H202.558V374.401H200.178V379.178C200.178 379.609 200.274 379.932 200.467 380.147C200.671 380.351 200.937 380.453 201.266 380.453ZM209.028 372.616C209.187 372.616 209.351 372.622 209.521 372.633C209.691 372.644 209.833 372.667 209.946 372.701L209.742 374.69C209.629 374.667 209.493 374.65 209.334 374.639C209.187 374.616 209.028 374.605 208.858 374.605C208.575 374.605 208.297 374.662 208.025 374.775C207.753 374.877 207.51 375.036 207.294 375.251C207.079 375.455 206.903 375.721 206.767 376.05C206.643 376.379 206.58 376.77 206.58 377.223V382H204.319V372.786H206.053L206.359 374.384H206.478C206.648 374.055 206.858 373.761 207.107 373.5C207.368 373.228 207.657 373.013 207.974 372.854C208.303 372.695 208.654 372.616 209.028 372.616ZM214.73 372.616C215.524 372.616 216.204 372.786 216.77 373.126C217.348 373.455 217.796 373.931 218.113 374.554C218.431 375.166 218.589 375.914 218.589 376.798V377.886H212.945C212.968 378.725 213.172 379.376 213.557 379.841C213.954 380.294 214.509 380.521 215.223 380.521C215.79 380.521 216.294 380.464 216.736 380.351C217.178 380.226 217.637 380.051 218.113 379.824V381.541C217.683 381.756 217.235 381.915 216.77 382.017C216.306 382.119 215.733 382.17 215.053 382.17C214.192 382.17 213.427 382 212.758 381.66C212.101 381.309 211.585 380.782 211.211 380.079C210.837 379.376 210.65 378.504 210.65 377.461C210.65 376.407 210.82 375.523 211.16 374.809C211.5 374.084 211.976 373.54 212.588 373.177C213.212 372.803 213.926 372.616 214.73 372.616ZM214.764 374.197C214.254 374.197 213.841 374.384 213.523 374.758C213.217 375.121 213.036 375.665 212.979 376.39H216.447C216.447 375.959 216.385 375.58 216.26 375.251C216.136 374.922 215.949 374.667 215.699 374.486C215.461 374.293 215.15 374.197 214.764 374.197ZM219.791 378.345V376.543H223.939V378.345H219.791ZM231.721 379.331C231.721 379.943 231.585 380.464 231.313 380.895C231.041 381.314 230.639 381.632 230.106 381.847C229.574 382.062 228.905 382.17 228.1 382.17C227.488 382.17 226.956 382.125 226.502 382.034C226.049 381.943 225.613 381.802 225.193 381.609V379.79C225.647 380.005 226.134 380.187 226.655 380.334C227.188 380.481 227.67 380.555 228.1 380.555C228.61 380.555 228.979 380.464 229.205 380.283C229.432 380.102 229.545 379.858 229.545 379.552C229.545 379.371 229.494 379.206 229.392 379.059C229.302 378.912 229.109 378.759 228.814 378.6C228.531 378.43 228.117 378.22 227.573 377.971C227.041 377.733 226.599 377.495 226.247 377.257C225.896 377.019 225.63 376.736 225.448 376.407C225.267 376.067 225.176 375.642 225.176 375.132C225.176 374.305 225.488 373.681 226.111 373.262C226.746 372.831 227.573 372.616 228.593 372.616C229.149 372.616 229.664 372.673 230.14 372.786C230.628 372.888 231.115 373.058 231.602 373.296L230.939 374.877C230.667 374.752 230.39 374.645 230.106 374.554C229.834 374.452 229.568 374.373 229.307 374.316C229.058 374.259 228.809 374.231 228.559 374.231C228.163 374.231 227.862 374.305 227.658 374.452C227.454 374.588 227.352 374.786 227.352 375.047C227.352 375.228 227.403 375.393 227.505 375.54C227.607 375.676 227.8 375.818 228.083 375.965C228.367 376.112 228.769 376.299 229.29 376.526C229.812 376.73 230.254 376.951 230.616 377.189C230.979 377.416 231.251 377.699 231.432 378.039C231.625 378.379 231.721 378.81 231.721 379.331ZM237.225 372.616C238.019 372.616 238.699 372.786 239.265 373.126C239.843 373.455 240.291 373.931 240.608 374.554C240.926 375.166 241.084 375.914 241.084 376.798V377.886H235.44C235.463 378.725 235.667 379.376 236.052 379.841C236.449 380.294 237.004 380.521 237.718 380.521C238.285 380.521 238.789 380.464 239.231 380.351C239.673 380.226 240.132 380.051 240.608 379.824V381.541C240.178 381.756 239.73 381.915 239.265 382.017C238.801 382.119 238.228 382.17 237.548 382.17C236.687 382.17 235.922 382 235.253 381.66C234.596 381.309 234.08 380.782 233.706 380.079C233.332 379.376 233.145 378.504 233.145 377.461C233.145 376.407 233.315 375.523 233.655 374.809C233.995 374.084 234.471 373.54 235.083 373.177C235.707 372.803 236.421 372.616 237.225 372.616ZM237.259 374.197C236.749 374.197 236.336 374.384 236.018 374.758C235.712 375.121 235.531 375.665 235.474 376.39H238.942C238.942 375.959 238.88 375.58 238.755 375.251C238.631 374.922 238.444 374.667 238.194 374.486C237.956 374.293 237.645 374.197 237.259 374.197Z" fill="white"/>
</g>
<defs>
<filter id="filter0_bi_133_2" x="-24.5" y="-110.5" width="439" height="769" filterUnits="userSpaceOnUse" color-interpolation-filters="sRGB">
<feFlood flood-opacity="0" result="BackgroundImageFix"/>
<feGaussianBlur in="BackgroundImageFix" stdDeviation="12.25"/>
<feComposite in2="SourceAlpha" operator="in" result="effect1_backgroundBlur_133_2"/>
<feBlend mode="normal" in="SourceGraphic" in2="effect1_backgroundBlur_133_2" result="shape"/>
<feColorMatrix in="SourceAlpha" type="matrix" values="0 0 0 0 0 0 0 0 0 0 0 0 0 0 0 0 0 0 127 0" result="hardAlpha"/>
<feMorphology radius="2" operator="dilate" in="SourceAlpha" result="effect2_innerShadow_133_2"/>
<feOffset dy="-5"/>
<feGaussianBlur stdDeviation="5.6"/>
<feComposite in2="hardAlpha" operator="arithmetic" k2="-1" k3="1"/>
<feColorMatrix type="matrix" values="0 0 0 0 0 0 0 0 0 0 0 0 0 0 0 0 0 0 0.25 0"/>
<feBlend mode="normal" in2="shape" result="effect2_innerShadow_133_2"/>
</filter>
<filter id="filter1_i_133_2" x="64" y="193" width="263" height="33" filterUnits="userSpaceOnUse" color-interpolation-filters="sRGB">
<feFlood flood-opacity="0" result="BackgroundImageFix"/>
<feBlend mode="normal" in="SourceGraphic" in2="BackgroundImageFix" result="shape"/>
<feColorMatrix in="SourceAlpha" type="matrix" values="0 0 0 0 0 0 0 0 0 0 0 0 0 0 0 0 0 0 127 0" result="hardAlpha"/>
<feOffset dy="4"/>
<feGaussianBlur stdDeviation="2"/>
<feComposite in2="hardAlpha" operator="arithmetic" k2="-1" k3="1"/>
<feColorMatrix type="matrix" values="0 0 0 0 0 0 0 0 0 0 0 0 0 0 0 0 0 0 0.25 0"/>
<feBlend mode="normal" in2="shape" result="effect1_innerShadow_133_2"/>
</filter>
<filter id="filter2_i_133_2" x="64" y="241" width="263" height="33" filterUnits="userSpaceOnUse" color-interpolation-filters="sRGB">
<feFlood flood-opacity="0" result="BackgroundImageFix"/>
<feBlend mode="normal" in="SourceGraphic" in2="BackgroundImageFix" result="shape"/>
<feColorMatrix in="SourceAlpha" type="matrix" values="0 0 0 0 0 0 0 0 0 0 0 0 0 0 0 0 0 0 127 0" result="hardAlpha"/>
<feOffset dy="4"/>
<feGaussianBlur stdDeviation="2"/>
<feComposite in2="hardAlpha" operator="arithmetic" k2="-1" k3="1"/>
<feColorMatrix type="matrix" values="0 0 0 0 0 0 0 0 0 0 0 0 0 0 0 0 0 0 0.25 0"/>
<feBlend mode="normal" in2="shape" result="effect1_innerShadow_133_2"/>
</filter>
<filter id="filter3_d_133_2" x="40.2" y="274.2" width="310.6" height="76.6" filterUnits="userSpaceOnUse" color-interpolation-filters="sRGB">
<feFlood flood-opacity="0" result="BackgroundImageFix"/>
<feColorMatrix in="SourceAlpha" type="matrix" values="0 0 0 0 0 0 0 0 0 0 0 0 0 0 0 0 0 0 127 0" result="hardAlpha"/>
<feMorphology radius="6" operator="erode" in="SourceAlpha" result="effect1_dropShadow_133_2"/>
<feOffset dy="2"/>
<feGaussianBlur stdDeviation="14.9"/>
<feComposite in2="hardAlpha" operator="out"/>
<feColorMatrix type="matrix" values="0 0 0 0 0 0 0 0 0 0 0 0 0 0 0 0 0 0 0.25 0"/>
<feBlend mode="normal" in2="BackgroundImageFix" result="effect1_dropShadow_133_2"/>
<feBlend mode="normal" in="SourceGraphic" in2="effect1_dropShadow_133_2" result="shape"/>
</filter>
<filter id="filter4_d_133_2" x="40.2" y="339.2" width="310.6" height="76.6" filterUnits="userSpaceOnUse" color-interpolation-filters="sRGB">
<feFlood flood-opacity="0" result="BackgroundImageFix"/>
<feColorMatrix in="SourceAlpha" type="matrix" values="0 0 0 0 0 0 0 0 0 0 0 0 0 0 0 0 0 0 127 0" result="hardAlpha"/>
<feMorphology radius="6" operator="erode" in="SourceAlpha" result="effect1_dropShadow_133_2"/>
<feOffset dy="2"/>
<feGaussianBlur stdDeviation="14.9"/>
<feComposite in2="hardAlpha" operator="out"/>
<feColorMatrix type="matrix" values="0 0 0 0 0 0 0 0 0 0 0 0 0 0 0 0 0 0 0.25 0"/>
<feBlend mode="normal" in2="BackgroundImageFix" result="effect1_dropShadow_133_2"/>
<feBlend mode="normal" in="SourceGraphic" in2="effect1_dropShadow_133_2" result="shape"/>
</filter>
<clipPath id="clip0_133_2">
<rect width="390" height="462" fill="white"/>
</clipPath>
</defs>
</svg>
