<svg width="1440" height="800" viewBox="0 0 1440 800" fill="none" xmlns="http://www.w3.org/2000/svg">
<g clip-path="url(#clip0_133_47)">
<rect width="1440" height="800" fill="url(#paint0_angular_133_47)"/>
<g filter="url(#filter0_bd_133_47)">
<path d="M0 -150H1367V589C1367 664.663 1305.66 726 1230 726H0V-150Z" fill="#CA5959" fill-opacity="0.83" shape-rendering="crispEdges"/>
</g>
<path d="M103 384V354H93V349H123V354H113V384H103ZM143 364H148V369H143V384H133V359H143V364ZM163 359V364H148V359H163ZM173 384V379H168V374H173V369H193V364H173V359H198V364H203V384H173ZM178 379H193V374H178V379ZM223 354V349H233V354H223ZM213 384V379H223V364H218V359H233V379H243V384H213ZM248 384V359H278V364H283V384H273V364H258V384H248ZM293 384V379H288V364H293V359H318V364H323V374H298V379H318V384H293ZM298 369H313V364H298V369ZM343 364H348V369H343V384H333V359H343V364ZM363 359V364H348V359H363ZM418 384V379H413V374H408V359H413V354H418V349H438V354H443V359H433V354H423V359H418V374H423V379H433V374H443V379H438V384H418ZM453 384V379H448V374H453V369H473V364H453V359H478V364H483V384H453ZM458 379H473V374H458V379ZM503 364H508V369H503V384H493V359H503V364ZM523 359V364H508V359H523ZM533 384V379H528V364H533V359H553V349H563V384H533ZM538 379H553V364H538V379Z" fill="#FEF5EA"/>
<line x1="754" y1="469.5" x2="1223" y2="469.5" stroke="white"/>
<g filter="url(#filter1_d_133_47)">
<rect x="754" y="495.66" width="469" height="41.3404" rx="5" fill="#CA5959"/>
</g>
<path d="M941.498 512.191C940.938 512.191 940.431 512.311 939.978 512.551C939.524 512.791 939.138 513.137 938.818 513.591C938.511 514.044 938.278 514.591 938.118 515.231C937.958 515.871 937.878 516.591 937.878 517.391C937.878 518.471 938.011 519.397 938.278 520.171C938.544 520.931 938.951 521.517 939.498 521.931C940.044 522.344 940.731 522.551 941.558 522.551C942.131 522.551 942.691 522.491 943.238 522.371C943.784 522.237 944.338 522.064 944.898 521.851V524.031C944.351 524.271 943.784 524.444 943.198 524.551C942.624 524.657 941.978 524.711 941.258 524.711C939.858 524.711 938.704 524.411 937.798 523.811C936.891 523.197 936.211 522.344 935.758 521.251C935.318 520.144 935.098 518.851 935.098 517.371C935.098 516.291 935.238 515.304 935.518 514.411C935.798 513.517 936.211 512.744 936.758 512.091C937.304 511.437 937.978 510.931 938.778 510.571C939.578 510.211 940.491 510.031 941.518 510.031C942.198 510.031 942.884 510.117 943.578 510.291C944.284 510.451 944.904 510.677 945.438 510.971L944.538 513.071C944.071 512.844 943.584 512.644 943.078 512.471C942.584 512.284 942.058 512.191 941.498 512.191ZM951.81 513.471C953.116 513.471 954.116 513.777 954.81 514.391C955.503 514.991 955.85 515.937 955.85 517.231V524.511H953.99L953.47 523.011H953.39C953.096 523.397 952.796 523.724 952.49 523.991C952.183 524.244 951.83 524.424 951.43 524.531C951.03 524.651 950.55 524.711 949.99 524.711C949.39 524.711 948.85 524.591 948.37 524.351C947.89 524.111 947.51 523.744 947.23 523.251C946.95 522.744 946.81 522.111 946.81 521.351C946.81 520.231 947.196 519.391 947.97 518.831C948.743 518.257 949.903 517.944 951.45 517.891L953.19 517.831V517.291C953.19 516.597 953.043 516.104 952.75 515.811C952.456 515.517 952.056 515.371 951.55 515.371C951.07 515.371 950.583 515.451 950.09 515.611C949.61 515.771 949.136 515.957 948.67 516.171L947.85 514.411C948.396 514.131 949.003 513.904 949.67 513.731C950.336 513.557 951.05 513.471 951.81 513.471ZM952.07 519.431C951.123 519.471 950.463 519.664 950.09 520.011C949.716 520.344 949.53 520.797 949.53 521.371C949.53 521.877 949.656 522.244 949.91 522.471C950.176 522.697 950.523 522.811 950.95 522.811C951.576 522.811 952.11 522.604 952.55 522.191C952.99 521.764 953.21 521.137 953.21 520.311V519.391L952.07 519.431ZM962.021 524.711C960.861 524.711 959.921 524.244 959.201 523.311C958.481 522.364 958.121 520.964 958.121 519.111C958.121 517.257 958.488 515.857 959.221 514.911C959.954 513.951 960.914 513.471 962.101 513.471C962.594 513.471 963.021 513.544 963.381 513.691C963.754 513.824 964.074 514.011 964.341 514.251C964.608 514.491 964.841 514.757 965.041 515.051H965.121C965.094 514.864 965.061 514.577 965.021 514.191C964.981 513.804 964.961 513.444 964.961 513.111V509.311H967.621V524.511H965.581L965.081 523.091H964.961C964.788 523.384 964.568 523.657 964.301 523.911C964.034 524.151 963.714 524.344 963.341 524.491C962.968 524.637 962.528 524.711 962.021 524.711ZM962.901 522.671C963.714 522.671 964.288 522.404 964.621 521.871C964.954 521.337 965.121 520.531 965.121 519.451V519.131C965.121 517.957 964.961 517.064 964.641 516.451C964.321 515.837 963.734 515.531 962.881 515.531C962.214 515.531 961.701 515.851 961.341 516.491C960.994 517.117 960.821 518.004 960.821 519.151C960.821 520.297 961.001 521.171 961.361 521.771C961.721 522.371 962.234 522.671 962.901 522.671ZM974.837 513.471C976.144 513.471 977.144 513.777 977.837 514.391C978.53 514.991 978.877 515.937 978.877 517.231V524.511H977.017L976.497 523.011H976.417C976.124 523.397 975.824 523.724 975.517 523.991C975.21 524.244 974.857 524.424 974.457 524.531C974.057 524.651 973.577 524.711 973.017 524.711C972.417 524.711 971.877 524.591 971.397 524.351C970.917 524.111 970.537 523.744 970.257 523.251C969.977 522.744 969.837 522.111 969.837 521.351C969.837 520.231 970.224 519.391 970.997 518.831C971.77 518.257 972.93 517.944 974.477 517.891L976.217 517.831V517.291C976.217 516.597 976.07 516.104 975.777 515.811C975.484 515.517 975.084 515.371 974.577 515.371C974.097 515.371 973.61 515.451 973.117 515.611C972.637 515.771 972.164 515.957 971.697 516.171L970.877 514.411C971.424 514.131 972.03 513.904 972.697 513.731C973.364 513.557 974.077 513.471 974.837 513.471ZM975.097 519.431C974.15 519.471 973.49 519.664 973.117 520.011C972.744 520.344 972.557 520.797 972.557 521.371C972.557 521.877 972.684 522.244 972.937 522.471C973.204 522.697 973.55 522.811 973.977 522.811C974.604 522.811 975.137 522.604 975.577 522.191C976.017 521.764 976.237 521.137 976.237 520.311V519.391L975.097 519.431ZM988.828 521.371C988.828 522.091 988.668 522.704 988.348 523.211C988.028 523.704 987.555 524.077 986.928 524.331C986.302 524.584 985.515 524.711 984.568 524.711C983.848 524.711 983.222 524.657 982.688 524.551C982.155 524.444 981.642 524.277 981.148 524.051V521.911C981.682 522.164 982.255 522.377 982.868 522.551C983.495 522.724 984.062 522.811 984.568 522.811C985.168 522.811 985.602 522.704 985.868 522.491C986.135 522.277 986.268 521.991 986.268 521.631C986.268 521.417 986.208 521.224 986.088 521.051C985.982 520.877 985.755 520.697 985.408 520.511C985.075 520.311 984.588 520.064 983.948 519.771C983.322 519.491 982.802 519.211 982.388 518.931C981.975 518.651 981.662 518.317 981.448 517.931C981.235 517.531 981.128 517.031 981.128 516.431C981.128 515.457 981.495 514.724 982.228 514.231C982.975 513.724 983.948 513.471 985.148 513.471C985.802 513.471 986.408 513.537 986.968 513.671C987.542 513.791 988.115 513.991 988.688 514.271L987.908 516.131C987.588 515.984 987.262 515.857 986.928 515.751C986.608 515.631 986.295 515.537 985.988 515.471C985.695 515.404 985.402 515.371 985.108 515.371C984.642 515.371 984.288 515.457 984.048 515.631C983.808 515.791 983.688 516.024 983.688 516.331C983.688 516.544 983.748 516.737 983.868 516.911C983.988 517.071 984.215 517.237 984.548 517.411C984.882 517.584 985.355 517.804 985.968 518.071C986.582 518.311 987.102 518.571 987.528 518.851C987.955 519.117 988.275 519.451 988.488 519.851C988.715 520.251 988.828 520.757 988.828 521.371ZM995.284 522.691C995.577 522.691 995.857 522.664 996.124 522.611C996.404 522.544 996.664 522.471 996.904 522.391V524.271C996.624 524.391 996.284 524.491 995.884 524.571C995.484 524.664 995.037 524.711 994.544 524.711C993.931 524.711 993.384 524.611 992.904 524.411C992.424 524.197 992.044 523.837 991.764 523.331C991.497 522.824 991.364 522.117 991.364 521.211V515.571H990.004V514.471L991.524 513.591L992.324 511.291H994.004V513.671H996.804V515.571H994.004V521.191C994.004 521.697 994.117 522.077 994.344 522.331C994.584 522.571 994.897 522.691 995.284 522.691ZM1004.42 513.471C1004.6 513.471 1004.8 513.477 1005 513.491C1005.2 513.504 1005.36 513.531 1005.5 513.571L1005.26 515.911C1005.12 515.884 1004.96 515.864 1004.78 515.851C1004.6 515.824 1004.42 515.811 1004.22 515.811C1003.88 515.811 1003.56 515.877 1003.24 516.011C1002.92 516.131 1002.63 516.317 1002.38 516.571C1002.12 516.811 1001.92 517.124 1001.76 517.511C1001.61 517.897 1001.54 518.357 1001.54 518.891V524.511H998.876V513.671H1000.92L1001.28 515.551H1001.42C1001.62 515.164 1001.86 514.817 1002.16 514.511C1002.46 514.191 1002.8 513.937 1003.18 513.751C1003.56 513.564 1003.98 513.471 1004.42 513.471ZM1011.12 513.471C1012.06 513.471 1012.86 513.671 1013.52 514.071C1014.2 514.457 1014.73 515.017 1015.1 515.751C1015.48 516.471 1015.66 517.351 1015.66 518.391V519.671H1009.02C1009.05 520.657 1009.29 521.424 1009.74 521.971C1010.21 522.504 1010.86 522.771 1011.7 522.771C1012.37 522.771 1012.96 522.704 1013.48 522.571C1014 522.424 1014.54 522.217 1015.1 521.951V523.971C1014.6 524.224 1014.07 524.411 1013.52 524.531C1012.98 524.651 1012.3 524.711 1011.5 524.711C1010.49 524.711 1009.59 524.511 1008.8 524.111C1008.03 523.697 1007.42 523.077 1006.98 522.251C1006.54 521.424 1006.32 520.397 1006.32 519.171C1006.32 517.931 1006.52 516.891 1006.92 516.051C1007.32 515.197 1007.88 514.557 1008.6 514.131C1009.34 513.691 1010.18 513.471 1011.12 513.471ZM1011.16 515.331C1010.56 515.331 1010.08 515.551 1009.7 515.991C1009.34 516.417 1009.13 517.057 1009.06 517.911H1013.14C1013.14 517.404 1013.07 516.957 1012.92 516.571C1012.78 516.184 1012.56 515.884 1012.26 515.671C1011.98 515.444 1011.62 515.331 1011.16 515.331ZM1017.08 520.211V518.091H1021.96V520.211H1017.08ZM1031.11 521.371C1031.11 522.091 1030.95 522.704 1030.63 523.211C1030.31 523.704 1029.84 524.077 1029.21 524.331C1028.59 524.584 1027.8 524.711 1026.85 524.711C1026.13 524.711 1025.51 524.657 1024.97 524.551C1024.44 524.444 1023.93 524.277 1023.43 524.051V521.911C1023.97 522.164 1024.54 522.377 1025.15 522.551C1025.78 522.724 1026.35 522.811 1026.85 522.811C1027.45 522.811 1027.89 522.704 1028.15 522.491C1028.42 522.277 1028.55 521.991 1028.55 521.631C1028.55 521.417 1028.49 521.224 1028.37 521.051C1028.27 520.877 1028.04 520.697 1027.69 520.511C1027.36 520.311 1026.87 520.064 1026.23 519.771C1025.61 519.491 1025.09 519.211 1024.67 518.931C1024.26 518.651 1023.95 518.317 1023.73 517.931C1023.52 517.531 1023.41 517.031 1023.41 516.431C1023.41 515.457 1023.78 514.724 1024.51 514.231C1025.26 513.724 1026.23 513.471 1027.43 513.471C1028.09 513.471 1028.69 513.537 1029.25 513.671C1029.83 513.791 1030.4 513.991 1030.97 514.271L1030.19 516.131C1029.87 515.984 1029.55 515.857 1029.21 515.751C1028.89 515.631 1028.58 515.537 1028.27 515.471C1027.98 515.404 1027.69 515.371 1027.39 515.371C1026.93 515.371 1026.57 515.457 1026.33 515.631C1026.09 515.791 1025.97 516.024 1025.97 516.331C1025.97 516.544 1026.03 516.737 1026.15 516.911C1026.27 517.071 1026.5 517.237 1026.83 517.411C1027.17 517.584 1027.64 517.804 1028.25 518.071C1028.87 518.311 1029.39 518.571 1029.81 518.851C1030.24 519.117 1030.56 519.451 1030.77 519.851C1031 520.251 1031.11 520.757 1031.11 521.371ZM1037.59 513.471C1038.52 513.471 1039.32 513.671 1039.99 514.071C1040.67 514.457 1041.2 515.017 1041.57 515.751C1041.94 516.471 1042.13 517.351 1042.13 518.391V519.671H1035.49C1035.52 520.657 1035.76 521.424 1036.21 521.971C1036.68 522.504 1037.33 522.771 1038.17 522.771C1038.84 522.771 1039.43 522.704 1039.95 522.571C1040.47 522.424 1041.01 522.217 1041.57 521.951V523.971C1041.06 524.224 1040.54 524.411 1039.99 524.531C1039.44 524.651 1038.77 524.711 1037.97 524.711C1036.96 524.711 1036.06 524.511 1035.27 524.111C1034.5 523.697 1033.89 523.077 1033.45 522.251C1033.01 521.424 1032.79 520.397 1032.79 519.171C1032.79 517.931 1032.99 516.891 1033.39 516.051C1033.79 515.197 1034.35 514.557 1035.07 514.131C1035.8 513.691 1036.64 513.471 1037.59 513.471ZM1037.63 515.331C1037.03 515.331 1036.54 515.551 1036.17 515.991C1035.81 516.417 1035.6 517.057 1035.53 517.911H1039.61C1039.61 517.404 1039.54 516.957 1039.39 516.571C1039.24 516.184 1039.02 515.884 1038.73 515.671C1038.45 515.444 1038.08 515.331 1037.63 515.331Z" fill="white"/>
<g filter="url(#filter2_d_133_47)">
<rect x="754" y="395" width="469" height="45" rx="5" fill="#CA5959"/>
</g>
<path d="M964.952 427.104H955.712V409.968H964.952V412.536H958.928V416.904H964.568V419.472H958.928V424.512H964.952V427.104ZM974.803 413.856C976.163 413.856 977.235 414.232 978.019 414.984C978.803 415.736 979.195 416.952 979.195 418.632V427.104H976.003V419.232C976.003 418.256 975.835 417.528 975.499 417.048C975.163 416.552 974.635 416.304 973.915 416.304C972.843 416.304 972.115 416.688 971.731 417.456C971.347 418.208 971.155 419.304 971.155 420.744V427.104H967.963V414.096H970.411L970.867 415.8H970.987C971.275 415.352 971.611 414.984 971.995 414.696C972.379 414.408 972.811 414.2 973.291 414.072C973.771 413.928 974.275 413.856 974.803 413.856ZM987.676 424.92C988.028 424.92 988.364 424.888 988.684 424.824C989.02 424.744 989.332 424.656 989.62 424.56V426.816C989.284 426.96 988.876 427.08 988.396 427.176C987.916 427.288 987.38 427.344 986.788 427.344C986.052 427.344 985.396 427.224 984.82 426.984C984.244 426.728 983.788 426.296 983.452 425.688C983.132 425.08 982.972 424.232 982.972 423.144V416.376H981.34V415.056L983.164 414L984.124 411.24H986.14V414.096H989.5V416.376H986.14V423.12C986.14 423.728 986.276 424.184 986.548 424.488C986.836 424.776 987.212 424.92 987.676 424.92ZM998.634 413.856C998.858 413.856 999.09 413.864 999.33 413.88C999.57 413.896 999.77 413.928 999.93 413.976L999.642 416.784C999.482 416.752 999.29 416.728 999.066 416.712C998.858 416.68 998.634 416.664 998.394 416.664C997.994 416.664 997.602 416.744 997.218 416.904C996.834 417.048 996.49 417.272 996.186 417.576C995.882 417.864 995.634 418.24 995.442 418.704C995.266 419.168 995.178 419.72 995.178 420.36V427.104H991.986V414.096H994.434L994.866 416.352H995.034C995.274 415.888 995.57 415.472 995.922 415.104C996.29 414.72 996.698 414.416 997.146 414.192C997.61 413.968 998.106 413.856 998.634 413.856ZM1006.78 413.856C1008.35 413.856 1009.55 414.224 1010.38 414.96C1011.21 415.68 1011.63 416.816 1011.63 418.368V427.104H1009.4L1008.77 425.304H1008.68C1008.32 425.768 1007.96 426.16 1007.6 426.48C1007.23 426.784 1006.8 427 1006.32 427.128C1005.84 427.272 1005.27 427.344 1004.6 427.344C1003.88 427.344 1003.23 427.2 1002.65 426.912C1002.08 426.624 1001.62 426.184 1001.28 425.592C1000.95 424.984 1000.78 424.224 1000.78 423.312C1000.78 421.968 1001.24 420.96 1002.17 420.288C1003.1 419.6 1004.49 419.224 1006.35 419.16L1008.44 419.088V418.44C1008.44 417.608 1008.26 417.016 1007.91 416.664C1007.56 416.312 1007.08 416.136 1006.47 416.136C1005.89 416.136 1005.31 416.232 1004.72 416.424C1004.14 416.616 1003.57 416.84 1003.01 417.096L1002.03 414.984C1002.68 414.648 1003.41 414.376 1004.21 414.168C1005.01 413.96 1005.87 413.856 1006.78 413.856ZM1007.09 421.008C1005.96 421.056 1005.16 421.288 1004.72 421.704C1004.27 422.104 1004.04 422.648 1004.04 423.336C1004.04 423.944 1004.2 424.384 1004.5 424.656C1004.82 424.928 1005.24 425.064 1005.75 425.064C1006.5 425.064 1007.14 424.816 1007.67 424.32C1008.2 423.808 1008.46 423.056 1008.46 422.064V420.96L1007.09 421.008ZM1021.65 413.856C1021.87 413.856 1022.11 413.864 1022.35 413.88C1022.59 413.896 1022.79 413.928 1022.95 413.976L1022.66 416.784C1022.5 416.752 1022.31 416.728 1022.08 416.712C1021.87 416.68 1021.65 416.664 1021.41 416.664C1021.01 416.664 1020.62 416.744 1020.23 416.904C1019.85 417.048 1019.51 417.272 1019.2 417.576C1018.9 417.864 1018.65 418.24 1018.46 418.704C1018.28 419.168 1018.19 419.72 1018.19 420.36V427.104H1015V414.096H1017.45L1017.88 416.352H1018.05C1018.29 415.888 1018.59 415.472 1018.94 415.104C1019.31 414.72 1019.71 414.416 1020.16 414.192C1020.63 413.968 1021.12 413.856 1021.65 413.856Z" fill="white"/>
<g filter="url(#filter3_i_133_47)">
<rect x="754" y="202" width="469" height="56" rx="12" fill="#FFFBF5"/>
</g>
<path d="M782.08 240H778.024L770.8 226.56H770.704C770.72 226.912 770.736 227.288 770.752 227.688C770.768 228.072 770.784 228.472 770.8 228.888C770.832 229.288 770.856 229.696 770.872 230.112C770.888 230.528 770.896 230.944 770.896 231.36V240H768.016V222.864H772.048L779.248 236.208H779.344C779.328 235.888 779.312 235.544 779.296 235.176C779.28 234.792 779.264 234.4 779.248 234C779.232 233.6 779.216 233.192 779.2 232.776C779.184 232.36 779.176 231.96 779.176 231.576V222.864H782.08V240ZM797.006 233.472C797.006 234.56 796.87 235.52 796.598 236.352C796.326 237.184 795.926 237.896 795.398 238.488C794.886 239.064 794.262 239.504 793.526 239.808C792.79 240.096 791.966 240.24 791.054 240.24C790.206 240.24 789.414 240.096 788.678 239.808C787.958 239.504 787.334 239.064 786.806 238.488C786.294 237.896 785.894 237.184 785.606 236.352C785.318 235.52 785.174 234.56 785.174 233.472C785.174 232.032 785.406 230.816 785.87 229.824C786.35 228.816 787.038 228.056 787.934 227.544C788.83 227.016 789.894 226.752 791.126 226.752C792.278 226.752 793.294 227.016 794.174 227.544C795.054 228.056 795.742 228.816 796.238 229.824C796.75 230.816 797.006 232.032 797.006 233.472ZM788.414 233.472C788.414 234.384 788.51 235.168 788.702 235.824C788.894 236.464 789.182 236.952 789.566 237.288C789.966 237.624 790.478 237.792 791.102 237.792C791.726 237.792 792.23 237.624 792.614 237.288C793.014 236.952 793.302 236.464 793.478 235.824C793.67 235.168 793.766 234.384 793.766 233.472C793.766 232.544 793.67 231.768 793.478 231.144C793.286 230.504 792.99 230.024 792.59 229.704C792.206 229.368 791.702 229.2 791.078 229.2C790.134 229.2 789.454 229.568 789.038 230.304C788.622 231.04 788.414 232.096 788.414 233.472ZM814.071 226.752C815.479 226.752 816.535 227.128 817.239 227.88C817.943 228.632 818.295 229.848 818.295 231.528V240H815.151V232.104C815.151 231.144 814.991 230.424 814.671 229.944C814.351 229.448 813.855 229.2 813.183 229.2C812.255 229.2 811.599 229.544 811.215 230.232C810.831 230.92 810.639 231.92 810.639 233.232V240H807.471V232.104C807.471 231.464 807.399 230.928 807.255 230.496C807.111 230.064 806.895 229.744 806.607 229.536C806.319 229.312 805.951 229.2 805.503 229.2C804.863 229.2 804.359 229.376 803.991 229.728C803.623 230.064 803.359 230.56 803.199 231.216C803.055 231.872 802.983 232.68 802.983 233.64V240H799.791V226.992H802.239L802.695 228.696H802.839C803.079 228.248 803.375 227.88 803.727 227.592C804.095 227.304 804.511 227.096 804.975 226.968C805.455 226.824 805.951 226.752 806.463 226.752C807.375 226.752 808.135 226.92 808.743 227.256C809.367 227.576 809.847 228.08 810.182 228.768H810.351C810.751 228.064 811.279 227.552 811.935 227.232C812.607 226.912 813.319 226.752 814.071 226.752ZM826.817 226.752C827.937 226.752 828.897 226.992 829.697 227.472C830.513 227.936 831.145 228.608 831.593 229.488C832.041 230.352 832.265 231.408 832.265 232.656V234.192H824.297C824.329 235.376 824.617 236.296 825.161 236.952C825.721 237.592 826.505 237.912 827.513 237.912C828.313 237.912 829.025 237.832 829.649 237.672C830.273 237.496 830.921 237.248 831.593 236.928V239.352C830.985 239.656 830.353 239.88 829.697 240.024C829.041 240.168 828.233 240.24 827.273 240.24C826.057 240.24 824.977 240 824.033 239.52C823.105 239.024 822.377 238.28 821.849 237.288C821.321 236.296 821.057 235.064 821.057 233.592C821.057 232.104 821.297 230.856 821.777 229.848C822.257 228.824 822.929 228.056 823.793 227.544C824.673 227.016 825.681 226.752 826.817 226.752ZM826.865 228.984C826.145 228.984 825.561 229.248 825.113 229.776C824.681 230.288 824.425 231.056 824.345 232.08H829.241C829.241 231.472 829.153 230.936 828.977 230.472C828.801 230.008 828.537 229.648 828.185 229.392C827.849 229.12 827.409 228.984 826.865 228.984ZM844.885 240.24C843.493 240.24 842.365 239.68 841.501 238.56C840.637 237.424 840.205 235.744 840.205 233.52C840.205 231.296 840.645 229.616 841.525 228.48C842.405 227.328 843.557 226.752 844.981 226.752C845.573 226.752 846.085 226.84 846.517 227.016C846.965 227.176 847.349 227.4 847.669 227.688C847.989 227.976 848.269 228.296 848.509 228.648H848.605C848.573 228.424 848.533 228.08 848.485 227.616C848.437 227.152 848.413 226.72 848.413 226.32V221.76H851.605V240H849.157L848.557 238.296H848.413C848.205 238.648 847.941 238.976 847.621 239.28C847.301 239.568 846.917 239.8 846.469 239.976C846.021 240.152 845.493 240.24 844.885 240.24ZM845.941 237.792C846.917 237.792 847.605 237.472 848.005 236.832C848.405 236.192 848.605 235.224 848.605 233.928V233.544C848.605 232.136 848.413 231.064 848.029 230.328C847.645 229.592 846.941 229.224 845.917 229.224C845.117 229.224 844.501 229.608 844.069 230.376C843.653 231.128 843.445 232.192 843.445 233.568C843.445 234.944 843.661 235.992 844.093 236.712C844.525 237.432 845.141 237.792 845.941 237.792ZM860.168 226.752C861.288 226.752 862.248 226.992 863.048 227.472C863.864 227.936 864.496 228.608 864.944 229.488C865.392 230.352 865.616 231.408 865.616 232.656V234.192H857.648C857.68 235.376 857.968 236.296 858.512 236.952C859.072 237.592 859.856 237.912 860.864 237.912C861.664 237.912 862.376 237.832 863 237.672C863.624 237.496 864.272 237.248 864.944 236.928V239.352C864.336 239.656 863.704 239.88 863.048 240.024C862.392 240.168 861.584 240.24 860.624 240.24C859.408 240.24 858.328 240 857.384 239.52C856.456 239.024 855.728 238.28 855.2 237.288C854.672 236.296 854.408 235.064 854.408 233.592C854.408 232.104 854.648 230.856 855.128 229.848C855.608 228.824 856.28 228.056 857.144 227.544C858.024 227.016 859.032 226.752 860.168 226.752ZM860.216 228.984C859.496 228.984 858.912 229.248 858.464 229.776C858.032 230.288 857.776 231.056 857.696 232.08H862.592C862.592 231.472 862.504 230.936 862.328 230.472C862.152 230.008 861.888 229.648 861.536 229.392C861.2 229.12 860.76 228.984 860.216 228.984ZM887.477 233.952C887.477 235.136 887.229 236.208 886.733 237.168C886.253 238.112 885.517 238.864 884.525 239.424C883.549 239.968 882.325 240.24 880.853 240.24C878.741 240.24 877.125 239.664 876.005 238.512C874.901 237.344 874.349 235.808 874.349 233.904V222.864H877.565V233.592C877.565 234.984 877.845 236.008 878.405 236.664C878.965 237.304 879.805 237.624 880.925 237.624C881.709 237.624 882.341 237.472 882.821 237.168C883.317 236.864 883.677 236.408 883.901 235.8C884.125 235.176 884.237 234.432 884.237 233.568V222.864H887.477V233.952ZM899.648 236.232C899.648 237.096 899.456 237.832 899.072 238.44C898.688 239.032 898.12 239.48 897.368 239.784C896.616 240.088 895.672 240.24 894.536 240.24C893.672 240.24 892.92 240.176 892.28 240.048C891.64 239.92 891.024 239.72 890.432 239.448V236.88C891.072 237.184 891.76 237.44 892.496 237.648C893.248 237.856 893.928 237.96 894.536 237.96C895.256 237.96 895.776 237.832 896.096 237.576C896.416 237.32 896.576 236.976 896.576 236.544C896.576 236.288 896.504 236.056 896.36 235.848C896.232 235.64 895.96 235.424 895.544 235.2C895.144 234.96 894.56 234.664 893.792 234.312C893.04 233.976 892.416 233.64 891.92 233.304C891.424 232.968 891.048 232.568 890.792 232.104C890.536 231.624 890.408 231.024 890.408 230.304C890.408 229.136 890.848 228.256 891.728 227.664C892.624 227.056 893.792 226.752 895.232 226.752C896.016 226.752 896.744 226.832 897.416 226.992C898.104 227.136 898.792 227.376 899.48 227.712L898.544 229.944C898.16 229.768 897.768 229.616 897.368 229.488C896.984 229.344 896.608 229.232 896.24 229.152C895.888 229.072 895.536 229.032 895.184 229.032C894.624 229.032 894.2 229.136 893.912 229.344C893.624 229.536 893.48 229.816 893.48 230.184C893.48 230.44 893.552 230.672 893.696 230.88C893.84 231.072 894.112 231.272 894.512 231.48C894.912 231.688 895.48 231.952 896.216 232.272C896.952 232.56 897.576 232.872 898.088 233.208C898.6 233.528 898.984 233.928 899.24 234.408C899.512 234.888 899.648 235.496 899.648 236.232ZM913.442 226.992V240H910.994L910.586 238.32H910.418C910.162 238.768 909.834 239.136 909.434 239.424C909.034 239.696 908.594 239.896 908.114 240.024C907.634 240.168 907.138 240.24 906.626 240.24C905.73 240.24 904.954 240.072 904.298 239.736C903.642 239.4 903.13 238.888 902.762 238.2C902.41 237.496 902.234 236.592 902.234 235.488V226.992H905.426V234.888C905.426 235.848 905.586 236.576 905.906 237.072C906.242 237.552 906.77 237.792 907.49 237.792C908.21 237.792 908.77 237.624 909.17 237.288C909.586 236.936 909.874 236.432 910.034 235.776C910.194 235.12 910.274 234.312 910.274 233.352V226.992H913.442ZM922.139 226.752C923.707 226.752 924.907 227.12 925.739 227.856C926.571 228.576 926.987 229.712 926.987 231.264V240H924.755L924.131 238.2H924.035C923.683 238.664 923.323 239.056 922.955 239.376C922.587 239.68 922.163 239.896 921.683 240.024C921.203 240.168 920.627 240.24 919.955 240.24C919.235 240.24 918.587 240.096 918.011 239.808C917.435 239.52 916.979 239.08 916.643 238.488C916.307 237.88 916.139 237.12 916.139 236.208C916.139 234.864 916.603 233.856 917.531 233.184C918.459 232.496 919.851 232.12 921.707 232.056L923.795 231.984V231.336C923.795 230.504 923.619 229.912 923.267 229.56C922.915 229.208 922.435 229.032 921.827 229.032C921.251 229.032 920.667 229.128 920.075 229.32C919.499 229.512 918.931 229.736 918.371 229.992L917.387 227.88C918.043 227.544 918.771 227.272 919.571 227.064C920.371 226.856 921.227 226.752 922.139 226.752ZM922.451 233.904C921.315 233.952 920.523 234.184 920.075 234.6C919.627 235 919.403 235.544 919.403 236.232C919.403 236.84 919.555 237.28 919.859 237.552C920.179 237.824 920.595 237.96 921.107 237.96C921.859 237.96 922.499 237.712 923.027 237.216C923.555 236.704 923.819 235.952 923.819 234.96V233.856L922.451 233.904ZM937.009 226.752C937.233 226.752 937.465 226.76 937.705 226.776C937.945 226.792 938.145 226.824 938.305 226.872L938.017 229.68C937.857 229.648 937.665 229.624 937.441 229.608C937.233 229.576 937.009 229.56 936.769 229.56C936.369 229.56 935.977 229.64 935.593 229.8C935.209 229.944 934.865 230.168 934.561 230.472C934.257 230.76 934.009 231.136 933.817 231.6C933.641 232.064 933.553 232.616 933.553 233.256V240H930.361V226.992H932.809L933.241 229.248H933.409C933.649 228.784 933.945 228.368 934.297 228C934.665 227.616 935.073 227.312 935.521 227.088C935.985 226.864 936.481 226.752 937.009 226.752ZM943.584 226.992V240H940.416V226.992H943.584ZM942.024 221.976C942.488 221.976 942.888 222.096 943.224 222.336C943.56 222.56 943.728 222.968 943.728 223.56C943.728 224.136 943.56 224.552 943.224 224.808C942.888 225.048 942.488 225.168 942.024 225.168C941.528 225.168 941.112 225.048 940.776 224.808C940.44 224.552 940.272 224.136 940.272 223.56C940.272 222.968 940.44 222.56 940.776 222.336C941.112 222.096 941.528 221.976 942.024 221.976ZM958.232 233.472C958.232 234.56 958.096 235.52 957.824 236.352C957.552 237.184 957.152 237.896 956.624 238.488C956.112 239.064 955.488 239.504 954.752 239.808C954.016 240.096 953.192 240.24 952.28 240.24C951.432 240.24 950.64 240.096 949.904 239.808C949.184 239.504 948.56 239.064 948.032 238.488C947.52 237.896 947.12 237.184 946.832 236.352C946.544 235.52 946.4 234.56 946.4 233.472C946.4 232.032 946.632 230.816 947.096 229.824C947.576 228.816 948.264 228.056 949.16 227.544C950.056 227.016 951.12 226.752 952.352 226.752C953.504 226.752 954.52 227.016 955.4 227.544C956.28 228.056 956.968 228.816 957.464 229.824C957.976 230.816 958.232 232.032 958.232 233.472ZM949.64 233.472C949.64 234.384 949.736 235.168 949.928 235.824C950.12 236.464 950.408 236.952 950.792 237.288C951.192 237.624 951.704 237.792 952.328 237.792C952.952 237.792 953.456 237.624 953.84 237.288C954.24 236.952 954.528 236.464 954.704 235.824C954.896 235.168 954.992 234.384 954.992 233.472C954.992 232.544 954.896 231.768 954.704 231.144C954.512 230.504 954.216 230.024 953.816 229.704C953.432 229.368 952.928 229.2 952.304 229.2C951.36 229.2 950.68 229.568 950.264 230.304C949.848 231.04 949.64 232.096 949.64 233.472Z" fill="#CA5959" fill-opacity="0.83"/>
<g filter="url(#filter4_i_133_47)">
<rect x="754" y="298" width="469" height="56" rx="12" fill="#FFFBF5"/>
</g>
<path d="M777.688 331.32C777.688 332.328 777.456 333.2 776.992 333.936C776.544 334.672 775.872 335.24 774.976 335.64C774.096 336.04 773.008 336.24 771.712 336.24C771.072 336.24 770.48 336.2 769.936 336.12C769.392 336.056 768.88 335.952 768.4 335.808C767.936 335.664 767.488 335.488 767.056 335.28V332.4C767.776 332.72 768.552 333.016 769.384 333.288C770.232 333.544 771.056 333.672 771.856 333.672C772.464 333.672 772.96 333.584 773.344 333.408C773.728 333.216 774.008 332.96 774.184 332.64C774.376 332.304 774.472 331.92 774.472 331.488C774.472 331.008 774.352 330.6 774.112 330.264C773.888 329.928 773.536 329.616 773.056 329.328C772.576 329.04 771.952 328.744 771.184 328.44C770.64 328.2 770.12 327.944 769.624 327.672C769.144 327.384 768.72 327.04 768.352 326.64C768 326.24 767.72 325.768 767.512 325.224C767.32 324.68 767.224 324.04 767.224 323.304C767.224 322.328 767.456 321.488 767.92 320.784C768.384 320.08 769.032 319.544 769.864 319.176C770.696 318.808 771.664 318.624 772.768 318.624C773.696 318.624 774.544 318.72 775.312 318.912C776.096 319.104 776.832 319.376 777.52 319.728L776.512 322.2C775.856 321.896 775.208 321.656 774.568 321.48C773.944 321.304 773.312 321.216 772.672 321.216C772.176 321.216 771.76 321.304 771.424 321.48C771.088 321.64 770.832 321.872 770.656 322.176C770.496 322.48 770.416 322.832 770.416 323.232C770.416 323.696 770.528 324.088 770.752 324.408C770.976 324.728 771.328 325.032 771.808 325.32C772.288 325.592 772.912 325.912 773.68 326.28C774.528 326.664 775.248 327.072 775.84 327.504C776.448 327.936 776.904 328.456 777.208 329.064C777.528 329.672 777.688 330.424 777.688 331.32ZM785.426 322.752C786.546 322.752 787.506 322.992 788.306 323.472C789.122 323.936 789.754 324.608 790.202 325.488C790.65 326.352 790.874 327.408 790.874 328.656V330.192H782.906C782.938 331.376 783.226 332.296 783.77 332.952C784.33 333.592 785.114 333.912 786.122 333.912C786.922 333.912 787.634 333.832 788.258 333.672C788.882 333.496 789.53 333.248 790.202 332.928V335.352C789.594 335.656 788.962 335.88 788.306 336.024C787.65 336.168 786.842 336.24 785.882 336.24C784.666 336.24 783.586 336 782.642 335.52C781.714 335.024 780.986 334.28 780.458 333.288C779.93 332.296 779.666 331.064 779.666 329.592C779.666 328.104 779.906 326.856 780.386 325.848C780.866 324.824 781.538 324.056 782.402 323.544C783.282 323.016 784.29 322.752 785.426 322.752ZM785.474 324.984C784.754 324.984 784.17 325.248 783.722 325.776C783.29 326.288 783.034 327.056 782.954 328.08H787.85C787.85 327.472 787.762 326.936 787.586 326.472C787.41 326.008 787.146 325.648 786.794 325.392C786.458 325.12 786.018 324.984 785.474 324.984ZM800.443 322.752C801.803 322.752 802.875 323.128 803.659 323.88C804.443 324.632 804.835 325.848 804.835 327.528V336H801.643V328.128C801.643 327.152 801.475 326.424 801.139 325.944C800.803 325.448 800.275 325.2 799.555 325.2C798.483 325.2 797.755 325.584 797.371 326.352C796.987 327.104 796.795 328.2 796.795 329.64V336H793.603V322.992H796.051L796.507 324.696H796.627C796.915 324.248 797.251 323.88 797.635 323.592C798.019 323.304 798.451 323.096 798.931 322.968C799.411 322.824 799.915 322.752 800.443 322.752ZM811.42 322.104C811.42 322.616 811.396 323.12 811.348 323.616C811.316 324.096 811.284 324.456 811.252 324.696H811.444C811.7 324.248 812.004 323.888 812.356 323.616C812.724 323.328 813.132 323.112 813.58 322.968C814.044 322.824 814.524 322.752 815.02 322.752C815.932 322.752 816.716 322.92 817.372 323.256C818.028 323.592 818.54 324.112 818.908 324.816C819.276 325.504 819.46 326.408 819.46 327.528V336H816.268V328.128C816.268 327.136 816.1 326.4 815.764 325.92C815.428 325.44 814.9 325.2 814.18 325.2C813.492 325.2 812.94 325.376 812.524 325.728C812.108 326.064 811.82 326.568 811.66 327.24C811.5 327.896 811.42 328.704 811.42 329.664V336H808.228V317.76H811.42V322.104ZM828.061 322.752C829.629 322.752 830.829 323.12 831.661 323.856C832.493 324.576 832.909 325.712 832.909 327.264V336H830.677L830.053 334.2H829.957C829.605 334.664 829.245 335.056 828.877 335.376C828.509 335.68 828.085 335.896 827.605 336.024C827.125 336.168 826.549 336.24 825.877 336.24C825.157 336.24 824.509 336.096 823.933 335.808C823.357 335.52 822.901 335.08 822.565 334.488C822.229 333.88 822.061 333.12 822.061 332.208C822.061 330.864 822.525 329.856 823.453 329.184C824.381 328.496 825.773 328.12 827.629 328.056L829.717 327.984V327.336C829.717 326.504 829.541 325.912 829.189 325.56C828.837 325.208 828.357 325.032 827.749 325.032C827.173 325.032 826.589 325.128 825.997 325.32C825.421 325.512 824.853 325.736 824.293 325.992L823.309 323.88C823.965 323.544 824.693 323.272 825.493 323.064C826.293 322.856 827.149 322.752 828.061 322.752ZM828.373 329.904C827.237 329.952 826.445 330.184 825.997 330.6C825.549 331 825.325 331.544 825.325 332.232C825.325 332.84 825.477 333.28 825.781 333.552C826.101 333.824 826.517 333.96 827.029 333.96C827.781 333.96 828.421 333.712 828.949 333.216C829.477 332.704 829.741 331.952 829.741 330.96V329.856L828.373 329.904Z" fill="#CA5959" fill-opacity="0.83"/>
</g>
<rect x="2" y="2" width="1436" height="796" stroke="black" stroke-width="4"/>
<defs>
<filter id="filter0_bd_133_47" x="-24.5" y="-174.5" width="1418.4" height="927.4" filterUnits="userSpaceOnUse" color-interpolation-filters="sRGB">
<feFlood flood-opacity="0" result="BackgroundImageFix"/>
<feGaussianBlur in="BackgroundImageFix" stdDeviation="12.25"/>
<feComposite in2="SourceAlpha" operator="in" result="effect1_backgroundBlur_133_47"/>
<feColorMatrix in="SourceAlpha" type="matrix" values="0 0 0 0 0 0 0 0 0 0 0 0 0 0 0 0 0 0 127 0" result="hardAlpha"/>
<feOffset dx="7" dy="7"/>
<feGaussianBlur stdDeviation="9.95"/>
<feComposite in2="hardAlpha" operator="out"/>
<feColorMatrix type="matrix" values="0 0 0 0 0 0 0 0 0 0 0 0 0 0 0 0 0 0 0.25 0"/>
<feBlend mode="normal" in2="effect1_backgroundBlur_133_47" result="effect2_dropShadow_133_47"/>
<feBlend mode="normal" in="SourceGraphic" in2="effect2_dropShadow_133_47" result="shape"/>
</filter>
<filter id="filter1_d_133_47" x="730.2" y="473.86" width="516.6" height="88.9403" filterUnits="userSpaceOnUse" color-interpolation-filters="sRGB">
<feFlood flood-opacity="0" result="BackgroundImageFix"/>
<feColorMatrix in="SourceAlpha" type="matrix" values="0 0 0 0 0 0 0 0 0 0 0 0 0 0 0 0 0 0 127 0" result="hardAlpha"/>
<feMorphology radius="6" operator="erode" in="SourceAlpha" result="effect1_dropShadow_133_47"/>
<feOffset dy="2"/>
<feGaussianBlur stdDeviation="14.9"/>
<feComposite in2="hardAlpha" operator="out"/>
<feColorMatrix type="matrix" values="0 0 0 0 0 0 0 0 0 0 0 0 0 0 0 0 0 0 0.25 0"/>
<feBlend mode="normal" in2="BackgroundImageFix" result="effect1_dropShadow_133_47"/>
<feBlend mode="normal" in="SourceGraphic" in2="effect1_dropShadow_133_47" result="shape"/>
</filter>
<filter id="filter2_d_133_47" x="730.2" y="373.2" width="516.6" height="92.6" filterUnits="userSpaceOnUse" color-interpolation-filters="sRGB">
<feFlood flood-opacity="0" result="BackgroundImageFix"/>
<feColorMatrix in="SourceAlpha" type="matrix" values="0 0 0 0 0 0 0 0 0 0 0 0 0 0 0 0 0 0 127 0" result="hardAlpha"/>
<feMorphology radius="6" operator="erode" in="SourceAlpha" result="effect1_dropShadow_133_47"/>
<feOffset dy="2"/>
<feGaussianBlur stdDeviation="14.9"/>
<feComposite in2="hardAlpha" operator="out"/>
<feColorMatrix type="matrix" values="0 0 0 0 0 0 0 0 0 0 0 0 0 0 0 0 0 0 0.25 0"/>
<feBlend mode="normal" in2="BackgroundImageFix" result="effect1_dropShadow_133_47"/>
<feBlend mode="normal" in="SourceGraphic" in2="effect1_dropShadow_133_47" result="shape"/>
</filter>
<filter id="filter3_i_133_47" x="754" y="202" width="469" height="60" filterUnits="userSpaceOnUse" color-interpolation-filters="sRGB">
<feFlood flood-opacity="0" result="BackgroundImageFix"/>
<feBlend mode="normal" in="SourceGraphic" in2="BackgroundImageFix" result="shape"/>
<feColorMatrix in="SourceAlpha" type="matrix" values="0 0 0 0 0 0 0 0 0 0 0 0 0 0 0 0 0 0 127 0" result="hardAlpha"/>
<feOffset dy="4"/>
<feGaussianBlur stdDeviation="2"/>
<feComposite in2="hardAlpha" operator="arithmetic" k2="-1" k3="1"/>
<feColorMatrix type="matrix" values="0 0 0 0 0 0 0 0 0 0 0 0 0 0 0 0 0 0 0.25 0"/>
<feBlend mode="normal" in2="shape" result="effect1_innerShadow_133_47"/>
</filter>
<filter id="filter4_i_133_47" x="754" y="298" width="469" height="60" filterUnits="userSpaceOnUse" color-interpolation-filters="sRGB">
<feFlood flood-opacity="0" result="BackgroundImageFix"/>
<feBlend mode="normal" in="SourceGraphic" in2="BackgroundImageFix" result="shape"/>
<feColorMatrix in="SourceAlpha" type="matrix" values="0 0 0 0 0 0 0 0 0 0 0 0 0 0 0 0 0 0 127 0" result="hardAlpha"/>
<feOffset dy="4"/>
<feGaussianBlur stdDeviation="2"/>
<feComposite in2="hardAlpha" operator="arithmetic" k2="-1" k3="1"/>
<feColorMatrix type="matrix" values="0 0 0 0 0 0 0 0 0 0 0 0 0 0 0 0 0 0 0.25 0"/>
<feBlend mode="normal" in2="shape" result="effect1_innerShadow_133_47"/>
</filter>
<radialGradient id="paint0_angular_133_47" cx="0" cy="0" r="1" gradientUnits="userSpaceOnUse" gradientTransform="translate(695.5 539.062) rotate(-170.74) scale(349.556 390.382)">
<stop stop-color="#FFFBF7"/>
<stop offset="0.26" stop-color="#FEF8F0"/>
<stop offset="0.525" stop-color="#FEF6ED"/>
<stop offset="0.765" stop-color="#FEF5EA"/>
<stop offset="1" stop-color="white"/>
</radialGradient>
<clipPath id="clip0_133_47">
<rect width="1440" height="800" fill="white"/>
</clipPath>
</defs>
</svg>
